# xmcd CD database file
#
# Track frame offsets:
#	150
#	15956
#	41395
#
# Disc length: 760 seconds
#
# Revision: 2
# Processed by: cddbd v1.4b41PL1 Copyright (c) Steve Scherf et al.
# Submitted via: Feurio! 1.50.2ß - http://www.feurio.com
#
DISCID=1202f603
DTITLE=Frank Marin - Alles Schnee Von Gestern
DYEAR=1900
DGENRE=
TTITLE0=Alles Schnee Von Gestern
TTITLE1=Alles Schnee Von Gestern ( Maxi - Version )
TTITLE2=Alles Schnee Von Gestern ( Instrumental - Version )
EXTD=
EXTT0=
EXTT1=
EXTT2=
PLAYORDER=
